<svg aria-hidden="true" style="position: absolute; width: 0; height: 0; overflow: hidden;" version="1.1" xmlns="http://www.w3.org/2000/svg" xmlns:xlink="http://www.w3.org/1999/xlink">
<defs>
<symbol id="icon-microwave" viewBox="0 0 32 32">
<path stroke-linejoin="round" stroke-linecap="round" stroke-miterlimit="4" stroke-width="2" d="M26.667 5.333h-21.334c-1.473 0.001-2.666 1.194-2.666 2.667v0 14.667c0.001 1.472 1.194 2.665 2.666 2.666h21.334c1.472-0.001 2.665-1.194 2.666-2.666v-14.667c0-1.473-1.194-2.666-2.666-2.667h-0z"></path>
<path stroke-linejoin="round" stroke-linecap="round" stroke-miterlimit="4" stroke-width="2" d="M17.333 10.667h-8c-0.736 0-1.333 0.597-1.333 1.333v6.667c0 0.736 0.597 1.333 1.333 1.333h8c0.737 0 1.334-0.597 1.334-1.333v-6.667c0-0.736-0.597-1.333-1.334-1.333zM24 10.667v9.333M8 25.333v2.667M24 25.333v2.667"></path>
</symbol>
<symbol id="icon-water" viewBox="0 0 32 32">
<path stroke-linejoin="miter" stroke-linecap="butt" stroke-miterlimit="10" stroke-width="2" d="M25 20c0 5.523-3.477 9-9 9s-9-3.477-9-9c0-5.927 6.452-13.928 8.43-16.243 0.138-0.161 0.342-0.263 0.57-0.263s0.432 0.101 0.569 0.262l0.001 0.001c1.978 2.315 8.43 10.316 8.43 16.243z"></path>
<path stroke-linejoin="round" stroke-linecap="round" stroke-miterlimit="4" stroke-width="2" d="M21.5 20.5c0 2.485-2.015 4.5-4.5 4.5v0"></path>
</symbol>
<symbol id="icon-stove" viewBox="0 0 32 32">
<path stroke-linejoin="round" stroke-linecap="round" stroke-miterlimit="4" stroke-width="2.4" d="M8 25.333h5.333M24 25.345v-0.012M2.667 8c0-4.413 0.92-5.333 5.333-5.333h16c4.413 0 5.333 0.92 5.333 5.333v16c0 4.413-0.92 5.333-5.333 5.333h-16c-4.413 0-5.333-0.92-5.333-5.333v-16z"></path>
<path stroke-linejoin="round" stroke-linecap="round" stroke-miterlimit="4" stroke-width="2.4" d="M16 18.667c2.946 0 5.334-2.388 5.334-5.334s-2.388-5.334-5.334-5.334v0c-2.946 0-5.334 2.388-5.334 5.334s2.388 5.334 5.334 5.334v0zM20.667 13.333h2M16 18v2M11.333 13.333h-2M16 8.667v-2"></path>
</symbol>
<symbol id="icon-Rating1" viewBox="0 0 34 32">
<path fill="#f2f4f7" style="fill: var(--color1, #f2f4f7)" d="M16.124 1.788c0.183-0.34 0.536-0.568 0.943-0.568s0.76 0.228 0.94 0.562l0.003 0.006 4.030 7.635c0.154 0.288 0.428 0.495 0.753 0.554l0.006 0.001 8.508 1.472c0.504 0.091 0.882 0.527 0.882 1.051 0 0.288-0.114 0.55-0.3 0.742l0-0-6.016 6.191c-0.187 0.192-0.303 0.455-0.303 0.745 0 0.053 0.004 0.106 0.011 0.157l-0.001-0.006 1.229 8.544c0.007 0.046 0.011 0.098 0.011 0.152 0 0.589-0.478 1.067-1.067 1.067-0.171 0-0.332-0.040-0.476-0.112l0.006 0.003-7.748-3.81c-0.138-0.069-0.3-0.11-0.471-0.11s-0.334 0.041-0.478 0.113l0.006-0.003-7.744 3.81c-0.138 0.069-0.3 0.11-0.472 0.11-0.589 0-1.067-0.478-1.067-1.067 0-0.054 0.004-0.107 0.012-0.159l-0.001 0.006 1.229-8.544c0.007-0.045 0.011-0.098 0.011-0.151 0-0.29-0.116-0.553-0.303-0.745l-6.016-6.191c-0.185-0.192-0.3-0.453-0.3-0.741 0-0.524 0.378-0.96 0.876-1.050l0.006-0.001 8.508-1.472c0.333-0.059 0.608-0.266 0.759-0.549l0.003-0.006 4.030-7.635z"></path>
</symbol>
<symbol id="icon-Property" viewBox="0 0 32 32">
<path fill="#e44848" style="fill: var(--color2, #e44848)" d="M16 13.139l-1.788-3.577c-0.444-0.887-1.213-2.16-2.304-3.191-1.072-1.013-2.356-1.704-3.908-1.704-3.352 0-6 2.652-6 5.84 0 2.423 1.108 4.132 3.736 6.74 0.719 0.705 1.465 1.418 2.221 2.122l0.071 0.065c2.216 2.080 4.972 4.667 7.972 8.128 3-3.46 5.756-6.049 7.972-8.128 0.827-0.768 1.573-1.482 2.31-2.204l-0.018 0.018c2.628-2.608 3.736-4.319 3.736-6.74 0-3.188-2.648-5.84-6-5.84-1.555 0-2.836 0.691-3.908 1.704-1.091 1.031-1.86 2.304-2.304 3.191l-1.788 3.577zM16.784 29.723c-0.19 0.223-0.47 0.364-0.784 0.364s-0.594-0.141-0.783-0.362l-0.001-0.001c-3.203-3.804-6.1-6.524-8.487-8.763-4.129-3.876-6.729-6.316-6.729-10.453 0-4.329 3.58-7.84 8-7.84 3.2 0 5.439 2.1 6.808 4.016 0.52 0.731 0.916 1.432 1.192 1.984 0.347-0.691 0.745-1.353 1.192-1.984 1.369-1.917 3.608-4.016 6.808-4.016 4.42 0 8 3.511 8 7.84 0 4.137-2.6 6.576-6.729 10.453-2.387 2.24-5.284 4.963-8.487 8.763z"></path>
</symbol>
<symbol id="icon-map" viewBox="0 0 32 32">
<path d="M31.634 0.226c0.115 0.094 0.207 0.212 0.27 0.346s0.096 0.28 0.096 0.428v28c-0 0.231-0.080 0.455-0.227 0.634s-0.351 0.301-0.577 0.346l-10 2c-0.129 0.026-0.263 0.026-0.392 0l-9.804-1.96-9.804 1.96c-0.145 0.029-0.295 0.025-0.438-0.010s-0.277-0.103-0.392-0.197c-0.114-0.094-0.207-0.212-0.27-0.345s-0.096-0.28-0.096-0.428v-28c0-0.231 0.080-0.455 0.227-0.634s0.351-0.301 0.577-0.346l10-2c0.129-0.026 0.263-0.026 0.392 0l9.804 1.96 9.804-1.96c0.145-0.029 0.295-0.026 0.438 0.010s0.277 0.103 0.392 0.196zM20 3.82l-8-1.6v25.96l8 1.6v-25.96zM22 29.78l8-1.6v-25.96l-8 1.6v25.96zM10 28.18v-25.96l-8 1.6v25.96l8-1.6z"></path>
</symbol>
<symbol id="icon-Logo" viewBox="0 0 32 32">
<path fill="#475467" style="fill: var(--color3, #475467)" d="M31.857 15.809h-0.849c-0.004-0.052-0.024-0.099-0.056-0.136l0 0c-0.033-0.038-0.075-0.068-0.123-0.086l-0.002-0.001c-0.048-0.020-0.103-0.032-0.161-0.032-0.002 0-0.004 0-0.006 0h0c-0.079 0-0.147 0.015-0.204 0.044s-0.085 0.070-0.084 0.124c-0.001 0.038 0.015 0.073 0.048 0.105s0.101 0.057 0.199 0.075l0.521 0.093c0.263 0.048 0.458 0.129 0.587 0.242 0.129 0.112 0.194 0.264 0.196 0.453-0.001 0.183-0.056 0.341-0.164 0.476-0.107 0.134-0.254 0.237-0.44 0.311s-0.396 0.109-0.633 0.109c-0.392 0-0.699-0.080-0.921-0.24s-0.344-0.372-0.369-0.635h0.916c0.012 0.081 0.052 0.144 0.12 0.189 0.069 0.044 0.156 0.065 0.261 0.065 0.085 0 0.154-0.014 0.209-0.043 0.056-0.029 0.084-0.070 0.085-0.124-0.001-0.049-0.026-0.088-0.073-0.117s-0.12-0.052-0.221-0.070l-0.454-0.080c-0.262-0.046-0.458-0.133-0.588-0.261s-0.195-0.293-0.194-0.495c-0.001-0.178 0.046-0.329 0.14-0.453 0.096-0.125 0.232-0.22 0.409-0.284 0.178-0.066 0.389-0.099 0.633-0.099 0.371 0 0.664 0.077 0.877 0.231 0.215 0.154 0.328 0.367 0.339 0.638zM27.392 16.932l0.007-1.096h0.12l0.622-0.862h1.036l-1.043 1.344h-0.261l-0.481 0.615zM26.563 17.54v-3.422h0.923v3.423h-0.923zM28.147 17.54l-0.588-1.016 0.602-0.655 1.043 1.671h-1.056zM24.852 17.587c-0.279 0-0.517-0.055-0.715-0.165-0.195-0.109-0.351-0.267-0.453-0.458l-0.003-0.006c-0.106-0.2-0.159-0.431-0.159-0.694s0.053-0.493 0.159-0.692c0.105-0.198 0.261-0.356 0.451-0.462l0.006-0.003c0.198-0.112 0.437-0.167 0.715-0.167 0.252 0 0.47 0.045 0.653 0.137 0.185 0.090 0.328 0.218 0.429 0.384s0.153 0.359 0.154 0.582h-0.856c-0.012-0.135-0.051-0.237-0.117-0.308-0.065-0.071-0.148-0.107-0.251-0.107-0.080 0-0.151 0.024-0.211 0.070-0.060 0.046-0.107 0.115-0.14 0.209-0.033 0.092-0.050 0.209-0.050 0.349s0.017 0.257 0.050 0.351c0.033 0.092 0.080 0.162 0.14 0.209s0.13 0.068 0.211 0.068c0.068 0 0.128-0.016 0.18-0.047 0.052-0.032 0.095-0.079 0.127-0.14 0.033-0.062 0.053-0.138 0.060-0.227h0.856c-0.004 0.226-0.055 0.424-0.156 0.592s-0.242 0.296-0.426 0.388c-0.183 0.091-0.401 0.137-0.655 0.137zM22.129 16.417v-1.444h0.922v2.567h-0.876v-0.488h-0.027c-0.053 0.161-0.156 0.293-0.29 0.383l-0.003 0.002c-0.139 0.091-0.305 0.137-0.496 0.137-0.179 0-0.336-0.041-0.471-0.124-0.134-0.083-0.24-0.199-0.31-0.336l-0.002-0.005c-0.074-0.145-0.111-0.311-0.112-0.498v-1.638h0.922v1.444c0.001 0.127 0.033 0.227 0.097 0.299 0.065 0.072 0.155 0.109 0.271 0.109 0.077 0 0.144-0.016 0.199-0.048 0.057-0.033 0.1-0.080 0.13-0.14 0.031-0.061 0.046-0.134 0.045-0.219zM18.33 17.54v-2.567h0.896v0.488h0.027c0.047-0.18 0.121-0.312 0.222-0.396 0.094-0.078 0.217-0.126 0.35-0.126 0.003 0 0.006 0 0.010 0h-0c0.040 0 0.080 0.004 0.119 0.010s0.079 0.014 0.115 0.025v0.788c-0.049-0.016-0.106-0.029-0.165-0.035l-0.004-0c-0.051-0.007-0.111-0.011-0.171-0.012h-0.001c-0.090 0-0.172 0.021-0.244 0.062-0.071 0.040-0.128 0.097-0.169 0.17-0.041 0.072-0.062 0.158-0.062 0.256v1.337h-0.922zM15.165 14.866v-0.749h2.975v0.749h-1.029v2.674h-0.916v-2.674h-1.030z"></path>
<path fill="#101828" style="fill: var(--color4, #101828)" d="M14.708 14.118v3.423h-0.922v-3.423h0.922zM12.058 17.587c-0.274 0-0.51-0.052-0.709-0.157-0.195-0.105-0.351-0.26-0.453-0.449l-0.003-0.006c-0.106-0.198-0.159-0.436-0.159-0.712 0-0.265 0.053-0.497 0.16-0.695 0.105-0.196 0.26-0.354 0.447-0.46l0.006-0.003c0.195-0.11 0.425-0.165 0.69-0.165 0.194 0 0.369 0.030 0.527 0.090s0.292 0.149 0.402 0.262l0 0c0.111 0.115 0.199 0.253 0.255 0.406l0.003 0.008c0.060 0.163 0.090 0.346 0.090 0.55v0.214h-2.293v-0.508h1.444c0-0 0-0.001 0-0.001 0-0.072-0.021-0.138-0.058-0.194l0.001 0.001c-0.036-0.056-0.085-0.101-0.143-0.131l-0.002-0.001c-0.057-0.031-0.126-0.049-0.198-0.049-0.003 0-0.005 0-0.008 0h0c-0.075 0-0.143 0.016-0.206 0.048-0.062 0.031-0.112 0.075-0.15 0.129l-0.001 0.001c-0.036 0.055-0.057 0.123-0.058 0.195v0.548c0 0.082 0.017 0.156 0.052 0.221s0.084 0.115 0.149 0.152c0.064 0.037 0.143 0.055 0.234 0.055 0.064 0 0.121-0.009 0.174-0.027s0.099-0.044 0.137-0.077c0.038-0.034 0.066-0.076 0.084-0.124h0.842c-0.027 0.179-0.101 0.337-0.207 0.466l0.001-0.002c-0.108 0.13-0.251 0.232-0.429 0.304-0.177 0.071-0.384 0.107-0.622 0.107zM10.55 14.973l-0.862 2.567h-1.070l-0.862-2.567h0.969l0.414 1.698h0.027l0.414-1.698h0.969zM5.896 17.58c-0.164 0-0.309-0.027-0.435-0.080-0.123-0.053-0.223-0.138-0.293-0.245l-0.002-0.003c-0.071-0.11-0.107-0.251-0.107-0.421 0-0.14 0.024-0.26 0.072-0.359s0.115-0.182 0.199-0.244l0.002-0.001c0.086-0.064 0.185-0.112 0.299-0.145 0.108-0.032 0.235-0.055 0.365-0.065l0.006-0c0.132-0.009 0.251-0.023 0.367-0.043l-0.021 0.003c0.088-0.017 0.152-0.040 0.191-0.068 0.036-0.026 0.058-0.068 0.058-0.115 0-0.001-0-0.003-0-0.004v0-0.007c0-0.067-0.026-0.118-0.077-0.154s-0.117-0.053-0.197-0.053c-0.088 0-0.16 0.020-0.216 0.059-0.055 0.038-0.088 0.096-0.099 0.175h-0.849c0.011-0.162 0.065-0.31 0.151-0.434l-0.002 0.003c0.089-0.132 0.219-0.238 0.389-0.318s0.383-0.12 0.638-0.12c0.184 0 0.349 0.022 0.495 0.065s0.27 0.102 0.373 0.179c0.103 0.076 0.18 0.165 0.234 0.268 0.055 0.101 0.082 0.212 0.082 0.331v1.758h-0.862v-0.361h-0.020c-0.048 0.092-0.11 0.169-0.186 0.232l-0.001 0.001c-0.072 0.059-0.155 0.102-0.249 0.128-0.088 0.025-0.189 0.040-0.294 0.040-0.004 0-0.008-0-0.013-0h0.001zM6.196 16.999c0.070 0 0.136-0.014 0.197-0.043 0.063-0.029 0.113-0.071 0.152-0.125s0.058-0.121 0.058-0.199v-0.214c-0.018 0.008-0.044 0.018-0.071 0.026l-0.008 0.002c-0.049 0.016-0.111 0.033-0.174 0.045l-0.010 0.002c-0.021 0.005-0.056 0.011-0.093 0.017l-0.013 0.002c-0.065 0.009-0.125 0.028-0.178 0.056l0.003-0.001c-0.045 0.024-0.078 0.055-0.1 0.092-0.020 0.033-0.032 0.074-0.032 0.117 0 0.001 0 0.002 0 0.004v-0c0 0.071 0.025 0.126 0.075 0.164s0.114 0.057 0.192 0.057zM3.165 17.54v-2.567h0.896v0.488h0.027c0.047-0.18 0.121-0.312 0.222-0.396 0.094-0.078 0.217-0.126 0.35-0.126 0.003 0 0.006 0 0.010 0h-0c0.040 0 0.080 0.004 0.119 0.010s0.078 0.014 0.115 0.025v0.788c-0.049-0.016-0.106-0.029-0.165-0.035l-0.004-0c-0.051-0.007-0.111-0.011-0.171-0.012h-0.001c-0.090 0-0.172 0.021-0.244 0.062-0.071 0.040-0.128 0.097-0.169 0.17-0.041 0.072-0.062 0.158-0.062 0.256v1.337h-0.922zM0 14.866v-0.749h2.975v0.749h-1.029v2.674h-0.916v-2.674h-1.029z"></path>
</symbol>
<symbol id="icon-tv" viewBox="0 0 32 32">
<path d="M0 8s0-4 4-4h24s4 0 4 4v12s0 4-4 4h-8c0 1.333 0.167 2.333 0.5 3h1.5c0.552 0 1 0.448 1 1s-0.448 1-1 1v0h-12c-0.552 0-1-0.448-1-1s0.448-1 1-1v0h1.5c0.333-0.667 0.5-1.667 0.5-3h-8s-4 0-4-4v-12zM2.796 6.29c-0.218 0.153-0.391 0.357-0.504 0.595l-0.004 0.009c-0.161 0.329-0.264 0.713-0.288 1.118l-0 0.008v11.98c0 0.65 0.156 1.004 0.29 1.204 0.14 0.208 0.341 0.377 0.604 0.508 0.338 0.162 0.703 0.259 1.076 0.286l0.050 0.002h23.98c0.65 0 1.004-0.156 1.204-0.29 0.218-0.153 0.391-0.357 0.504-0.595l0.004-0.009c0.162-0.338 0.259-0.703 0.286-1.076l0.002-0.050v-11.98c0-0.65-0.156-1.004-0.29-1.204-0.153-0.218-0.357-0.391-0.595-0.504l-0.009-0.004c-0.329-0.161-0.713-0.264-1.118-0.288l-0.008-0h-23.98c-0.65 0-1.004 0.156-1.204 0.29z"></path>
</symbol>
<symbol id="icon-wind" viewBox="0 0 32 32">
<path d="M25 4c-2.761 0-5 2.239-5 5v0c0 0.552-0.448 1-1 1s-1-0.448-1-1v0c0-3.866 3.134-7 7-7s7 3.134 7 7c0 3.866-3.134 7-7 7v0h-24c-0.552 0-1-0.448-1-1s0.448-1 1-1v0h24c2.761 0 5-2.239 5-5s-2.239-5-5-5v0zM11 6c-1.105 0-2 0.895-2 2v0c0 0.552-0.448 1-1 1s-1-0.448-1-1v0c0-2.209 1.791-4 4-4s4 1.791 4 4c0 2.209-1.791 4-4 4v0h-10c-0.552 0-1-0.448-1-1s0.448-1 1-1v0h10c1.105 0 2-0.895 2-2s-0.895-2-2-2v0zM0 19c0-0.552 0.448-1 1-1v0h20.084c3.314 0 6 2.686 6 6s-2.686 6-6 6c-3.314 0-6-2.686-6-6v0c0-0.552 0.448-1 1-1s1 0.448 1 1v0c0 2.209 1.791 4 4 4s4-1.791 4-4c0-2.209-1.791-4-4-4v0h-20.084c-0.552 0-1-0.448-1-1v0z"></path>
</symbol>
<symbol id="icon-diagram" viewBox="0 0 32 32">
<path d="M12 7c0-1.657 1.343-3 3-3v0h2c1.657 0 3 1.343 3 3v0 2c0 1.657-1.343 3-3 3v0 2h11c0.552 0 1 0.448 1 1v0 2c0 0.552-0.448 1-1 1s-1-0.448-1-1v0-1h-10v1c0 0.552-0.448 1-1 1s-1-0.448-1-1v0-1h-10v1c0 0.552-0.448 1-1 1s-1-0.448-1-1v0-2c0-0.552 0.448-1 1-1v0h11v-2c-1.657 0-3-1.343-3-3v0-2zM17 10c0.552 0 1-0.448 1-1v0-2c0-0.552-0.448-1-1-1v0h-2c-0.552 0-1 0.448-1 1v0 2c0 0.552 0.448 1 1 1v0h2zM0 23c0-1.657 1.343-3 3-3v0h2c1.657 0 3 1.343 3 3v0 2c0 1.657-1.343 3-3 3v0h-2c-1.657 0-3-1.343-3-3v0-2zM3 22c-0.552 0-1 0.448-1 1v0 2c0 0.552 0.448 1 1 1v0h2c0.552 0 1-0.448 1-1v0-2c0-0.552-0.448-1-1-1v0h-2zM12 23c0-1.657 1.343-3 3-3v0h2c1.657 0 3 1.343 3 3v0 2c0 1.657-1.343 3-3 3v0h-2c-1.657 0-3-1.343-3-3v0-2zM15 22c-0.552 0-1 0.448-1 1v0 2c0 0.552 0.448 1 1 1v0h2c0.552 0 1-0.448 1-1v0-2c0-0.552-0.448-1-1-1v0h-2zM24 23c0-1.657 1.343-3 3-3v0h2c1.657 0 3 1.343 3 3v0 2c0 1.657-1.343 3-3 3v0h-2c-1.657 0-3-1.343-3-3v0-2zM27 22c-0.552 0-1 0.448-1 1v0 2c0 0.552 0.448 1 1 1v0h2c0.552 0 1-0.448 1-1v0-2c0-0.552-0.448-1-1-1v0h-2z"></path>
</symbol>
<symbol id="icon-cup-hot" viewBox="0 0 32 32">
<path d="M1 12c-0.552 0.001-0.999 0.449-0.999 1.001 0 0.076 0.009 0.15 0.025 0.222l-0.001-0.007 3.304 14.868c0.514 2.257 2.503 3.915 4.88 3.916h11.584c2.377-0.001 4.366-1.659 4.874-3.882l0.006-0.034 0.262-1.18c0.332 0.065 0.713 0.102 1.103 0.102 3.314 0 6-2.686 6-6 0-2.782-1.893-5.121-4.461-5.801l-0.042-0.009 0.442-1.98c0.015-0.065 0.024-0.139 0.024-0.216 0-0.552-0.448-1-1-1h-26zM26 25c-0.212 0-0.423-0.017-0.632-0.050l1.734-7.796c1.682 0.499 2.889 2.030 2.889 3.844 0 2.206-1.785 3.996-3.99 4.002h-0.001zM5.28 27.65l-3.034-13.65h23.508l-3.034 13.65c-0.308 1.354-1.502 2.35-2.928 2.35h-11.584c-1.426-0-2.62-0.996-2.924-2.33l-0.004-0.020z"></path>
<path d="M8.8 1.6l-0.006 0.008-0.028 0.038c-0.146 0.2-0.282 0.407-0.408 0.62-0.097 0.151-0.191 0.326-0.272 0.508l-0.010 0.026c-0.052 0.12-0.068 0.184-0.074 0.206v0.008c0.025 0.187 0.089 0.355 0.185 0.501l-0.003-0.005c0.15 0.266 0.356 0.544 0.616 0.89l0.020 0.024c0.236 0.316 0.52 0.694 0.74 1.086 0.224 0.4 0.44 0.91 0.44 1.49 0 0.376-0.13 0.736-0.238 0.988-0.132 0.303-0.267 0.558-0.419 0.801l0.015-0.025c-0.181 0.301-0.348 0.551-0.525 0.792l0.019-0.028-0.036 0.050-0.010 0.016-0.004 0.004c-0.184 0.245-0.474 0.401-0.801 0.401-0.552 0-1-0.448-1-1 0-0.226 0.075-0.434 0.201-0.602l-0.002 0.003 0.006-0.008 0.028-0.038c0.146-0.2 0.282-0.407 0.408-0.62 0.097-0.151 0.191-0.326 0.272-0.508l0.010-0.026c0.052-0.12 0.068-0.184 0.074-0.206-0.023-0.189-0.087-0.36-0.183-0.509l0.003 0.005c-0.204-0.339-0.408-0.63-0.63-0.905l0.012 0.015-0.020-0.024c-0.249-0.316-0.494-0.67-0.715-1.040l-0.025-0.046c-0.261-0.425-0.423-0.937-0.44-1.485l-0-0.005c0-0.376 0.13-0.736 0.238-0.988 0.118-0.276 0.268-0.548 0.404-0.776 0.159-0.261 0.328-0.516 0.506-0.764l0.050-0.070c0.184-0.245 0.474-0.401 0.801-0.401 0.552 0 1 0.448 1 1 0 0.226-0.075 0.434-0.201 0.602l0.002-0.003zM14.8 1.6l-0.006 0.008-0.028 0.038c-0.146 0.2-0.282 0.407-0.408 0.62-0.107 0.17-0.202 0.35-0.282 0.534-0.052 0.12-0.068 0.184-0.074 0.206v0.008c0.025 0.187 0.089 0.355 0.185 0.501l-0.003-0.005c0.15 0.266 0.356 0.544 0.616 0.89l0.020 0.024c0.236 0.316 0.52 0.694 0.74 1.086 0.224 0.4 0.44 0.91 0.44 1.49 0 0.376-0.13 0.736-0.238 0.988-0.116 0.268-0.25 0.528-0.404 0.776-0.181 0.301-0.348 0.55-0.525 0.791l0.019-0.027-0.036 0.050-0.010 0.016-0.004 0.004c-0.184 0.245-0.474 0.401-0.801 0.401-0.552 0-1-0.448-1-1 0-0.226 0.075-0.434 0.201-0.602l-0.002 0.003 0.006-0.008 0.028-0.038c0.146-0.2 0.282-0.407 0.408-0.62 0.107-0.17 0.202-0.35 0.282-0.534 0.052-0.12 0.068-0.184 0.074-0.206-0.023-0.189-0.087-0.36-0.183-0.509l0.003 0.005c-0.204-0.339-0.408-0.63-0.63-0.905l0.012 0.015-0.020-0.024c-0.27-0.345-0.517-0.708-0.74-1.086-0.261-0.425-0.423-0.937-0.44-1.485l-0-0.005c0-0.376 0.13-0.736 0.238-0.988 0.118-0.276 0.268-0.548 0.404-0.776 0.159-0.261 0.328-0.516 0.506-0.764l0.050-0.070c0.184-0.245 0.474-0.401 0.801-0.401 0.552 0 1 0.448 1 1 0 0.226-0.075 0.434-0.201 0.602l0.002-0.003zM20.8 1.6l-0.006 0.008-0.028 0.038c-0.145 0.2-0.282 0.407-0.408 0.62-0.107 0.17-0.202 0.35-0.282 0.534-0.052 0.12-0.068 0.184-0.074 0.206v0.008c0.025 0.187 0.089 0.355 0.185 0.501l-0.003-0.005c0.15 0.266 0.356 0.544 0.616 0.89l0.020 0.024c0.236 0.316 0.52 0.694 0.74 1.086 0.224 0.4 0.44 0.91 0.44 1.49 0 0.376-0.13 0.736-0.238 0.988-0.116 0.268-0.25 0.528-0.404 0.776-0.156 0.262-0.324 0.517-0.504 0.764l-0.038 0.050-0.010 0.016-0.004 0.004c-0.184 0.245-0.474 0.401-0.801 0.401-0.552 0-1-0.448-1-1 0-0.226 0.075-0.434 0.201-0.602l-0.002 0.003 0.006-0.008 0.028-0.038c0.145-0.2 0.282-0.407 0.408-0.62 0.107-0.17 0.202-0.35 0.282-0.534 0.052-0.12 0.068-0.184 0.074-0.206-0.023-0.189-0.087-0.36-0.183-0.509l0.003 0.005c-0.204-0.339-0.408-0.63-0.63-0.905l0.012 0.015-0.020-0.024c-0.27-0.345-0.517-0.708-0.74-1.086-0.261-0.425-0.423-0.937-0.44-1.485l-0-0.005c0-0.376 0.13-0.736 0.238-0.988 0.118-0.276 0.268-0.548 0.404-0.776 0.159-0.261 0.328-0.516 0.506-0.764l0.050-0.070c0.184-0.245 0.474-0.401 0.801-0.401 0.552 0 1 0.448 1 1 0 0.226-0.075 0.434-0.201 0.602l0.002-0.003z"></path>
</symbol>
<symbol id="icon-shower" viewBox="0 0 32 32">
<path d="M8 29.5c0 0.828-0.672 1.5-1.5 1.5s-1.5-0.672-1.5-1.5v0c0-0.828 0.672-1.5 1.5-1.5s1.5 0.672 1.5 1.5v0zM10.5 24c-0.828 0-1.5 0.672-1.5 1.5s0.672 1.5 1.5 1.5v0c0.828 0 1.5-0.672 1.5-1.5s-0.672-1.5-1.5-1.5v0zM2.5 24c-0.828 0-1.5 0.672-1.5 1.5s0.672 1.5 1.5 1.5v0c0.828 0 1.5-0.672 1.5-1.5s-0.672-1.5-1.5-1.5v0zM6.5 20c-0.828 0-1.5 0.672-1.5 1.5s0.672 1.5 1.5 1.5v0c0.828 0 1.5-0.672 1.5-1.5s-0.672-1.5-1.5-1.5v0zM32 5c0 0.552-0.448 1-1 1v0h-3.586l-3.482 3.482-2.707 15.85c-0.165 0.952-0.985 1.667-1.972 1.667-0.552 0-1.052-0.224-1.414-0.585l-12.25-12.25c-0.362-0.362-0.587-0.862-0.587-1.415 0-0.989 0.718-1.81 1.661-1.971l0.012-0.002 15.842-2.708 3.776-3.775c0.181-0.181 0.431-0.293 0.707-0.293h4c0.552 0 1 0.448 1 1v0zM21.776 10.224l-14.776 2.526 12.25 12.25 2.526-14.776z"></path>
</symbol>
<symbol id="icon-grid-1x2" viewBox="0 0 32 32">
<path d="M12 2h-10v28h10v-28zM30 2h-10v10h10v-10zM30 20v10h-10v-10h10zM0 2c0-1.105 0.895-2 2-2v0h10c1.105 0 2 0.895 2 2v0 28c0 1.105-0.895 2-2 2v0h-10c-1.105 0-2-0.895-2-2v0-28zM18 2c0-1.105 0.895-2 2-2v0h10c1.105 0 2 0.895 2 2v0 10c0 1.105-0.895 2-2 2v0h-10c-1.105 0-2-0.895-2-2v0-10zM20 18c-1.105 0-2 0.895-2 2v0 10c0 1.105 0.895 2 2 2v0h10c1.105 0 2-0.895 2-2v0-10c0-1.105-0.895-2-2-2v0h-10z"></path>
</symbol>
<symbol id="icon-grid" viewBox="0 0 32 32">
<path d="M2 5c0-1.657 1.343-3 3-3v0h6c1.657 0 3 1.343 3 3v0 6c0 1.657-1.343 3-3 3v0h-6c-1.657 0-3-1.343-3-3v0-6zM5 4c-0.552 0-1 0.448-1 1v0 6c0 0.552 0.448 1 1 1v0h6c0.552 0 1-0.448 1-1v0-6c0-0.552-0.448-1-1-1v0h-6zM18 5c0-1.657 1.343-3 3-3v0h6c1.657 0 3 1.343 3 3v0 6c0 1.657-1.343 3-3 3v0h-6c-1.657 0-3-1.343-3-3v0-6zM21 4c-0.552 0-1 0.448-1 1v0 6c0 0.552 0.448 1 1 1v0h6c0.552 0 1-0.448 1-1v0-6c0-0.552-0.448-1-1-1v0h-6zM2 21c0-1.657 1.343-3 3-3v0h6c1.657 0 3 1.343 3 3v0 6c0 1.657-1.343 3-3 3v0h-6c-1.657 0-3-1.343-3-3v0-6zM5 20c-0.552 0-1 0.448-1 1v0 6c0 0.552 0.448 1 1 1v0h6c0.552 0 1-0.448 1-1v0-6c0-0.552-0.448-1-1-1v0h-6zM18 21c0-1.657 1.343-3 3-3v0h6c1.657 0 3 1.343 3 3v0 6c0 1.657-1.343 3-3 3v0h-6c-1.657 0-3-1.343-3-3v0-6zM21 20c-0.552 0-1 0.448-1 1v0 6c0 0.552 0.448 1 1 1v0h6c0.552 0 1-0.448 1-1v0-6c0-0.552-0.448-1-1-1v0h-6z"></path>
</symbol>
<symbol id="icon-grid-3x3" viewBox="0 0 32 32">
<path d="M8 4v4h-4v-4h4zM10 28v-4c0-1.105-0.895-2-2-2v0h-4c-1.105 0-2 0.895-2 2v0 4c0 1.105 0.895 2 2 2v0h4c1.105 0 2-0.895 2-2v0zM10 18v-4c0-1.105-0.895-2-2-2v0h-4c-1.105 0-2 0.895-2 2v0 4c0 1.105 0.895 2 2 2v0h4c1.105 0 2-0.895 2-2v0zM10 8v-4c0-1.105-0.895-2-2-2v0h-4c-1.105 0-2 0.895-2 2v0 4c0 1.105 0.895 2 2 2v0h4c1.105 0 2-0.895 2-2v0zM20 28v-4c0-1.105-0.895-2-2-2v0h-4c-1.105 0-2 0.895-2 2v0 4c0 1.105 0.895 2 2 2v0h4c1.105 0 2-0.895 2-2v0zM20 18v-4c0-1.105-0.895-2-2-2v0h-4c-1.105 0-2 0.895-2 2v0 4c0 1.105 0.895 2 2 2v0h4c1.105 0 2-0.895 2-2v0zM20 8v-4c0-1.105-0.895-2-2-2v0h-4c-1.105 0-2 0.895-2 2v0 4c0 1.105 0.895 2 2 2v0h4c1.105 0 2-0.895 2-2v0zM18 4v4h-4v-4h4zM28 4v4h-4v-4h4zM8 14v4h-4v-4h4zM18 14v4h-4v-4h4zM28 14h-4v4h4v-4zM8 24v4h-4v-4h4zM18 24v4h-4v-4h4zM28 24v4h-4v-4h4zM24 2c-1.105 0-2 0.895-2 2v0 4c0 1.105 0.895 2 2 2v0h4c1.105 0 2-0.895 2-2v0-4c0-1.105-0.895-2-2-2v0h-4zM22 14c0-1.105 0.895-2 2-2v0h4c1.105 0 2 0.895 2 2v0 4c0 1.105-0.895 2-2 2v0h-4c-1.105 0-2-0.895-2-2v0-4zM24 22c-1.105 0-2 0.895-2 2v0 4c0 1.105 0.895 2 2 2v0h4c1.105 0 2-0.895 2-2v0-4c0-1.105-0.895-2-2-2v0h-4z"></path>
</symbol>
<symbol id="icon-fridge" viewBox="0 0 32 32">
<path d="M23.667 9.333c0-0.552-0.448-1-1-1s-1 0.448-1 1v0 2.667c0 0.552 0.448 1 1 1s1-0.448 1-1v0-2.667zM23.667 18.667c0-0.552-0.448-1-1-1s-1 0.448-1 1v0 2.666c0 0.552 0.448 1 1 1s1-0.448 1-1v0-2.666z"></path>
<path d="M16.075 1.667h-0.15c-2.45 0-4.392 0-5.91 0.204-1.563 0.21-2.828 0.653-3.827 1.65-0.997 0.999-1.44 2.264-1.65 3.827-0.205 1.52-0.205 3.46-0.205 5.91v4.15c0 2.45 0 4.392 0.204 5.91 0.211 1.563 0.654 2.829 1.651 3.827 0.613 0.612 1.325 1.015 2.145 1.284v0.904c0 0.552 0.448 1 1 1v0h1.334c0.552 0 1-0.448 1-1v0-0.394c1.209 0.061 2.62 0.061 4.258 0.061h0.15c1.64 0 3.049 0 4.258-0.061v0.394c0 0.552 0.448 1 1 1v0h1.334c0.552 0 1-0.448 1-1v0-0.904c0.82-0.269 1.533-0.672 2.145-1.284 0.997-0.998 1.44-2.264 1.65-3.826 0.205-1.52 0.205-3.46 0.205-5.911v-4.148c0-2.45 0-4.392-0.204-5.91-0.211-1.563-0.654-2.829-1.651-3.827-0.999-0.998-2.264-1.44-3.827-1.651-1.52-0.204-3.46-0.204-5.91-0.204zM7.603 4.936c0.564-0.564 1.337-0.903 2.678-1.083 1.371-0.184 3.176-0.186 5.719-0.186s4.35 0.002 5.72 0.186c1.34 0.18 2.113 0.519 2.677 1.083s0.903 1.337 1.083 2.679c0.184 1.37 0.187 3.176 0.187 5.718v1h-19.334v-1c0-2.542 0.003-4.348 0.187-5.72 0.18-1.34 0.519-2.113 1.083-2.677zM6.333 16.333h19.334v1c0 2.543-0.003 4.35-0.187 5.72-0.18 1.34-0.519 2.114-1.083 2.678s-1.337 0.902-2.678 1.082c-1.371 0.184-3.176 0.187-5.719 0.187s-4.348-0.003-5.72-0.187c-1.34-0.18-2.113-0.518-2.677-1.082s-0.903-1.338-1.083-2.679c-0.184-1.37-0.187-3.176-0.187-5.719v-1z"></path>
</symbol>
<symbol id="icon-heard" viewBox="0 0 32 32">
<path d="M16 13.139l-1.788-3.577c-0.444-0.887-1.213-2.16-2.304-3.191-1.072-1.013-2.356-1.704-3.908-1.704-3.352 0-6 2.652-6 5.84 0 2.423 1.108 4.132 3.736 6.74 0.719 0.705 1.465 1.418 2.221 2.122l0.071 0.065c2.216 2.080 4.972 4.667 7.972 8.128 3-3.46 5.756-6.049 7.972-8.128 0.827-0.768 1.573-1.482 2.31-2.204l-0.018 0.018c2.628-2.608 3.736-4.319 3.736-6.74 0-3.188-2.648-5.84-6-5.84-1.555 0-2.836 0.691-3.908 1.704-1.091 1.031-1.86 2.304-2.304 3.191l-1.788 3.577zM16.784 29.723c-0.19 0.223-0.47 0.364-0.784 0.364s-0.594-0.141-0.783-0.362l-0.001-0.001c-3.203-3.804-6.1-6.524-8.487-8.763-4.129-3.876-6.729-6.316-6.729-10.453 0-4.329 3.58-7.84 8-7.84 3.2 0 5.439 2.1 6.808 4.016 0.52 0.731 0.916 1.432 1.192 1.984 0.347-0.691 0.745-1.353 1.192-1.984 1.369-1.917 3.608-4.016 6.808-4.016 4.42 0 8 3.511 8 7.84 0 4.137-2.6 6.576-6.729 10.453-2.387 2.24-5.284 4.963-8.487 8.763z"></path>
</symbol>
<symbol id="icon-Rating" viewBox="0 0 32 32">
<path fill="#ffc531" style="fill: var(--color5, #ffc531)" d="M15.116 2.676c0.171-0.319 0.503-0.532 0.884-0.532s0.713 0.213 0.881 0.527l0.003 0.005 3.778 7.158c0.144 0.27 0.401 0.464 0.706 0.519l0.006 0.001 7.976 1.38c0.473 0.085 0.827 0.494 0.827 0.985 0 0.27-0.107 0.515-0.281 0.695l0-0-5.64 5.804c-0.176 0.18-0.284 0.426-0.284 0.698 0 0.050 0.004 0.099 0.011 0.147l-0.001-0.005 1.152 8.010c0.006 0.043 0.010 0.092 0.010 0.142 0 0.552-0.448 1-1 1-0.16 0-0.312-0.038-0.446-0.105l0.006 0.003-7.264-3.572c-0.129-0.065-0.281-0.103-0.442-0.103s-0.313 0.038-0.448 0.106l0.006-0.003-7.26 3.572c-0.129 0.065-0.281 0.103-0.442 0.103-0.552 0-1-0.448-1-1 0-0.050 0.004-0.1 0.011-0.149l-0.001 0.005 1.152-8.010c0.006-0.043 0.010-0.092 0.010-0.142 0-0.272-0.108-0.518-0.284-0.698l-5.64-5.804c-0.174-0.18-0.281-0.425-0.281-0.695 0-0.491 0.354-0.9 0.821-0.984l0.006-0.001 7.976-1.38c0.312-0.056 0.57-0.249 0.711-0.515l0.003-0.005 3.778-7.158z"></path>
</symbol>
<symbol id="icon-engine" viewBox="0 0 32 32">
<path d="M6 5c0-0.552 0.448-1 1-1v0h10c0.552 0 1 0.448 1 1v0 10c0 0.552-0.448 1-1 1v0h-10c-0.552 0-1-0.448-1-1v0-10z"></path>
<path d="M2 4c0-2.209 1.791-4 4-4v0h12c2.209 0 4 1.791 4 4v0 16c2.209 0 4 1.791 4 4v0 1c0 0.552 0.448 1 1 1s1-0.448 1-1v0-9h-1c-0.552 0-1-0.448-1-1v0-6.25c0-0.552 0.448-1 1-1v0h2.99c-0.022-0.952-0.107-1.789-0.403-2.445-0.163-0.386-0.436-0.7-0.779-0.91l-0.008-0.005c-0.368-0.221-0.928-0.39-1.8-0.39-0.552 0-1-0.448-1-1s0.448-1 1-1v0c1.128-0.003 2.069 0.221 2.824 0.672 0.766 0.456 1.269 1.102 1.587 1.814 0.592 1.31 0.589 2.93 0.589 4.162v6.35c0 0 0 0.001 0 0.002 0 0.552-0.448 1-1 1h-1v9c0 1.657-1.343 3-3 3s-3-1.343-3-3v0-1c0-1.105-0.895-2-2-2v0 8h1c0.552 0 1 0.448 1 1s-0.448 1-1 1v0h-22c-0.552 0-1-0.448-1-1s0.448-1 1-1v0h1v-26zM20 4c0-1.105-0.895-2-2-2v0h-12c-1.105 0-2 0.895-2 2v0 26h16v-26z"></path>
</symbol>
<symbol id="icon-Vector" viewBox="0 0 32 32">
<path d="M14.737 4.421c0-0.581 0.471-1.053 1.053-1.053v0h14.737c0.581 0 1.053 0.471 1.053 1.053v0 2.105c0 0.581-0.471 1.053-1.053 1.053v0h-14.737c-0.581 0-1.053-0.471-1.053-1.053v0-2.105zM0 24.421c0-3.488 2.828-6.316 6.316-6.316s6.316 2.828 6.316 6.316v0c0 3.488-2.828 6.316-6.316 6.316s-6.316-2.828-6.316-6.316v0zM14.737 21.263c0-0.581 0.471-1.053 1.053-1.053v0h14.737c0 0 0.001 0 0.002 0 0.58 0 1.051 0.471 1.051 1.051 0 0.001 0 0.001 0 0.002v-0 2.105c0 0 0 0.001 0 0.002 0 0.58-0.471 1.051-1.051 1.051-0.001 0-0.001 0-0.002 0h-14.737c-0.581 0-1.053-0.471-1.053-1.053v0-2.105zM14.737 10.737c0-0.581 0.471-1.053 1.053-1.053v0h10.526c0.581 0 1.053 0.471 1.053 1.053s-0.471 1.053-1.053 1.053v0h-10.526c-0.581 0-1.053-0.471-1.053-1.053v0zM14.737 27.579c0-0.581 0.471-1.053 1.053-1.053v0h10.526c0.581 0 1.053 0.471 1.053 1.053s-0.471 1.053-1.053 1.053v0h-10.526c-0.581 0-1.053-0.471-1.053-1.053v0zM6.316 1.263c-3.488 0-6.316 2.828-6.316 6.316s2.828 6.316 6.316 6.316v0c3.488 0 6.316-2.828 6.316-6.316s-2.828-6.316-6.316-6.316v0zM6.316 10.737c-1.744 0-3.158-1.414-3.158-3.158s1.414-3.158 3.158-3.158v0c1.744 0 3.158 1.414 3.158 3.158s-1.414 3.158-3.158 3.158v0z"></path>
</symbol>
</defs>
</svg>
